<svg id="Layer_1" data-name="Layer 1" xmlns="http://www.w3.org/2000/svg" viewBox="0 0 56.69 56.69"><defs><style>.cls-1{fill:#fff6e1;}.cls-2{fill:#e5b08c;}.cls-3{fill:#ff4f33;}.cls-4{fill:#f2a286;}.cls-5{fill:#ffcda7;}.cls-6{fill:#d26159;}.cls-7{fill:#00030f;}.cls-8{fill:#ffaa47;}.cls-9{fill:#70aca0;}.cls-10{fill:#31756c;}.cls-11{fill:#d9ebff;}</style></defs><rect class="cls-1" width="56.69" height="56.69"/><ellipse class="cls-2" cx="28.55" cy="51.34" rx="13.04" ry="3.83"/><path class="cls-3" d="M1414.1,1396.94l1.07-1.71a4.63,4.63,0,0,0-.71-.59c-.36.69-.83,1.45-1.29,2.19l-.3.49a.91.91,0,0,0,.61.06A1,1,0,0,0,1414.1,1396.94Z" transform="translate(-1396.31 -1374.28)"/><path class="cls-4" d="M1430.82,1414a29.68,29.68,0,0,0,1.14-3,16.67,16.67,0,0,0,1-5.59,41.5,41.5,0,0,1,.87-8.7l-7.16-3.66a.17.17,0,0,1-.08-.12c-.41-3.19-1.54-11.54-1.9-12.38a2.39,2.39,0,0,0-2.06-.46,1.49,1.49,0,0,0-1,.89,54.22,54.22,0,0,0,.55,8.86h0c.33,3-.29,3.69-.69,3.84a.88.88,0,0,1-1-.44,36.37,36.37,0,0,1-2-3.52h0c-.93-2.25-2.5-5.89-2.81-6.28a1.94,1.94,0,0,0-1.94.15,1.43,1.43,0,0,0-.66,1.22h0c.06,1.59,1.68,6.79,2.17,8.35a1.55,1.55,0,0,1-.07,1.12.73.73,0,0,1-.21.28c.18.15.35.3.5.45v0a4,4,0,0,1,1.14,2.37,5,5,0,0,1-.24,2.12,7.63,7.63,0,0,1-.55,1.31,4.43,4.43,0,0,1,1,1.1,7.6,7.6,0,0,1,1,4.1.15.15,0,0,1-.15.15h0a.15.15,0,0,1-.1-.14,7.17,7.17,0,0,0-1-3.92,4.07,4.07,0,0,0-.85-1l-.15.26a10.82,10.82,0,0,1-1.32,1.79.15.15,0,0,1-.22-.2,11.53,11.53,0,0,0,1.29-1.75,6.4,6.4,0,0,0,1-3.77,3.7,3.7,0,0,0-.93-2.06l-1,1.65a1.31,1.31,0,0,1-1.59.51l-.06,0c-.91,1.49-1.7,2.93-1.45,3.71a25.1,25.1,0,0,1,.94,5.89,3.21,3.21,0,0,0,1.3,2.17,11.8,11.8,0,0,0,2.89,1.87c2.16,1,2.6,4.74,2.32,7.64-.09,1,.19,1.6.8,1.82a1.87,1.87,0,0,0,1.39-.12,3.38,3.38,0,0,0,1.35-1.12,2,2,0,0,1,1.31-.93c1-.15,2,.62,3.07,1.44l.3.24a1.82,1.82,0,0,0,2.07.1,2.72,2.72,0,0,0,1.25-2.76C1430,1415.21,1430.36,1414.53,1430.82,1414Z" transform="translate(-1396.31 -1374.28)"/><path class="cls-5" d="M1415.29,1393.4a4.12,4.12,0,0,0,.23-1.23s-.11-.37-.51-1.44-.83-2.45-.51-2.62.39-.35.07-.26-.41,0-.1-.16.75-.32.41-.37-.7.34-1-.45-.44-2.11.15-2.74c.34-.37.33-.61.27-.75a1.88,1.88,0,0,0-.59.28,1.43,1.43,0,0,0-.66,1.22h0c.06,1.59,1.68,6.79,2.17,8.35A.75.75,0,0,1,1415.29,1393.4Z" transform="translate(-1396.31 -1374.28)"/><path class="cls-6" d="M1430.25,1417.53c-.3-2.32.11-3,.57-3.49a29.68,29.68,0,0,0,1.14-3,23.23,23.23,0,0,0,.82-3.2,6.75,6.75,0,0,0-2.5-1.87c-2.13-.79-9.53-1.12-9.53-1.12s-1.86.45-.42,2,5.91,1.83,7.29,4.45-1.9,3-3.6,1.57-1.54.65-4-.17c-2.18-.73-2.84-1.78-5.12-2.38a14.75,14.75,0,0,0,1.52.83c2.16,1,2.6,4.74,2.32,7.64-.09,1,.19,1.6.8,1.82a1.87,1.87,0,0,0,1.39-.12,3.38,3.38,0,0,0,1.35-1.12l.17-.22c.82-3.09,1.79-5.85,1.71-4-.11,2.47,1.23-1.31,1.28,0s3.87-1.89,3.87,2a6.67,6.67,0,0,1-.73,3.28,2,2,0,0,0,.45-.2A2.72,2.72,0,0,0,1430.25,1417.53Z" transform="translate(-1396.31 -1374.28)"/><path class="cls-5" d="M1416.55,1410.41c-.66-.44-1.17-.32-2.34-1s.37-1.57.8-3.06-.77-1.84-1.26-1.38-.71,1.31-1,.56a10.64,10.64,0,0,1-.5-2.26c-.14-.92-.59-2.44-.37-3s.81-1.94,1.15-2a1.71,1.71,0,0,0,1.32-.76,2.34,2.34,0,0,0,.58-1.36l-.58.93a1.31,1.31,0,0,1-1.59.51l-.06,0c-.91,1.49-1.7,2.93-1.45,3.71a25.1,25.1,0,0,1,.94,5.89,3.21,3.21,0,0,0,1.3,2.17,11.31,11.31,0,0,0,2.44,1.65C1416.71,1411.13,1417,1410.72,1416.55,1410.41Z" transform="translate(-1396.31 -1374.28)"/><path class="cls-5" d="M1421.61,1381.05a54.22,54.22,0,0,0,.55,8.86h0c.29.13.71.32.52-.51a19.79,19.79,0,0,1-.3-4c.15-.1,1.34-.07,1.17-.26s-.62,0-1.09-.08-.4-.66.07-.77,1-.35.39-.28-.93,0-.94-.36a8.8,8.8,0,0,1,.13-2.5c.2-.52,1.12-.94,1.43-1.05a1.9,1.9,0,0,0-.92,0A1.49,1.49,0,0,0,1421.61,1381.05Z" transform="translate(-1396.31 -1374.28)"/><path class="cls-6" d="M1417.31,1392.82a3,3,0,0,0,1.19-.81,3.23,3.23,0,0,0,.54-1.15l-.54-1.06h0c-.93-2.25-2.5-5.89-2.81-6.28a2.09,2.09,0,0,0-.67-.18c-.29.19-.51.85,0,2.88A43.6,43.6,0,0,0,1417.31,1392.82Z" transform="translate(-1396.31 -1374.28)"/><path class="cls-6" d="M1426.58,1393c-.41-3.19-1.54-11.54-1.9-12.38l-.18-.12a1.38,1.38,0,0,0-1.11,1.35,109,109,0,0,0,1.8,11c.15.45,1,1.09,1.43.25A.2.2,0,0,1,1426.58,1393Z" transform="translate(-1396.31 -1374.28)"/><path class="cls-7" d="M1431.06,1414.23a.05.05,0,0,0,0,0,28.34,28.34,0,0,0,1.17-3,16.2,16.2,0,0,0,1-5.7,41.9,41.9,0,0,1,.89-8.73.16.16,0,0,0-.08-.17l-7.19-3.67c-.06-.49-.41-3.14-.79-5.85-.86-6-1.08-6.45-1.15-6.59l0,0a2.69,2.69,0,0,0-2.36-.53,1.83,1.83,0,0,0-1.21,1.1,0,0,0,0,0,0,0,55.07,55.07,0,0,0,.55,9c.26,2.36-.09,3.37-.5,3.53-.2.08-.45,0-.66-.33a38,38,0,0,1-1.93-3.48c0-.09-.64-1.55-1.29-3-1.34-3.1-1.53-3.29-1.6-3.36a.09.09,0,0,0-.05,0,2.22,2.22,0,0,0-2.26.16,1.75,1.75,0,0,0-.79,1.5c.06,1.63,1.69,6.86,2.18,8.42a1.22,1.22,0,0,1,0,.9c-.07.13-.11.17-.13.18a.17.17,0,0,0-.1,0l-.19-.13a.17.17,0,0,0-.12,0,.16.16,0,0,0-.1.08c-.36.72-.87,1.54-1.36,2.33-1.16,1.88-2.26,3.66-1.93,4.7a24.85,24.85,0,0,1,.92,5.79,3.49,3.49,0,0,0,1.4,2.4,11.7,11.7,0,0,0,3,1.92,4.08,4.08,0,0,1,1.92,3,14,14,0,0,1,.22,4.37,2.67,2.67,0,0,0,.2,1.41,1.46,1.46,0,0,0,.73.7l.06,0a2.93,2.93,0,0,0,3.1-1.35,1.65,1.65,0,0,1,1.1-.8c.86-.14,1.82.6,2.85,1.38l.3.24a2.13,2.13,0,0,0,2.4.12,2.83,2.83,0,0,0,1.11-1.21,3.23,3.23,0,0,0,.28-1.85C1430.24,1415.09,1430.73,1414.57,1431.06,1414.23Zm-17.89-17.4c.46-.74.93-1.5,1.29-2.19a4.63,4.63,0,0,1,.71.59l-1.07,1.71a1,1,0,0,1-.62.44.91.91,0,0,1-.61-.06Zm15.83,23.46a1.82,1.82,0,0,1-2.07-.1l-.3-.24c-1.08-.82-2.09-1.59-3.07-1.44a2,2,0,0,0-1.31.93,3.38,3.38,0,0,1-1.35,1.12,1.87,1.87,0,0,1-1.39.12c-.61-.22-.89-.87-.8-1.82.28-2.9-.16-6.65-2.32-7.64a11.8,11.8,0,0,1-2.89-1.87,3.21,3.21,0,0,1-1.3-2.17,25.1,25.1,0,0,0-.94-5.89c-.25-.78.54-2.22,1.45-3.71l.06,0a1.31,1.31,0,0,0,1.59-.51l1-1.65a3.7,3.7,0,0,1,.93,2.06,6.4,6.4,0,0,1-1,3.77A11.53,11.53,0,0,1,1414,1403a.15.15,0,0,0,.22.2,10.82,10.82,0,0,0,1.32-1.79l.15-.26a4.07,4.07,0,0,1,.85,1,7.17,7.17,0,0,1,1,3.92.15.15,0,0,0,.1.14h0a.15.15,0,0,0,.15-.15,7.6,7.6,0,0,0-1-4.1,4.43,4.43,0,0,0-1-1.1,7.63,7.63,0,0,0,.55-1.31,5,5,0,0,0,.24-2.12,4,4,0,0,0-1.14-2.37v0c-.15-.15-.32-.3-.5-.45a.73.73,0,0,0,.21-.28,1.55,1.55,0,0,0,.07-1.12c-.49-1.56-2.11-6.76-2.17-8.35h0a1.43,1.43,0,0,1,.66-1.22,1.94,1.94,0,0,1,1.94-.15c.31.39,1.88,4,2.81,6.28h0a36.37,36.37,0,0,0,2,3.52.88.88,0,0,0,1,.44c.4-.15,1-.86.69-3.84h0a54.22,54.22,0,0,1-.55-8.86,1.49,1.49,0,0,1,1-.89,2.39,2.39,0,0,1,2.06.46c.36.84,1.49,9.19,1.9,12.38a.17.17,0,0,0,.08.12l7.16,3.66a41.5,41.5,0,0,0-.87,8.7,16.67,16.67,0,0,1-1,5.59,29.68,29.68,0,0,1-1.14,3c-.46.49-.87,1.17-.57,3.49A2.72,2.72,0,0,1,1429,1420.29Z" transform="translate(-1396.31 -1374.28)"/><path class="cls-8" d="M1437.74,1398.8a3.77,3.77,0,1,0,1.8,5.37h0l0-.08h0a.59.59,0,0,1,0-.08h0l0-.08v0l0-.06v0l0-.08h0a.2.2,0,0,1,0-.08v0l0,0v0l0,0v-.08l0-.06h0a3.75,3.75,0,0,0,.16-1.1v-.06h0A3.77,3.77,0,0,0,1437.74,1398.8Z" transform="translate(-1396.31 -1374.28)"/><circle class="cls-3" cx="40.93" cy="26.1" r="1.18"/><circle class="cls-3" cx="39.2" cy="30.21" r="1.18"/><circle class="cls-3" cx="38.01" cy="27.29" r="1.18"/><circle class="cls-3" cx="42.12" cy="29.03" r="1.18"/><circle class="cls-1" cx="1429.91" cy="1405.48" r="2.6" transform="translate(-1645.58 1126.82) rotate(-77.63)"/><circle class="cls-1" cx="24.24" cy="27.26" r="2.6"/><path class="cls-9" d="M1434.69,1406a4.07,4.07,0,1,1,5.26-5.49,3.39,3.39,0,0,0-.21-1.94,1.6,1.6,0,0,0-.39-.53l-4-1.71h0l-5.84-2.27-.39-.16-5.7-2.6-4.07-1.72a1.61,1.61,0,0,0-.65.1,3.31,3.31,0,0,0-1.54,1.19,4.08,4.08,0,0,1,5.07,5.44,4.07,4.07,0,0,1-7.82-1.45,61.3,61.3,0,0,0-4.48,7.56,6.87,6.87,0,0,0-.57,3.11,2.23,2.23,0,0,0,1,1.79,3,3,0,0,0,2.35.18,5.37,5.37,0,0,0,2.69-1.93c.75-1,2-1.33,3.74-1.11a30.75,30.75,0,0,1,9.71,4.1c1.36,1.08,2,2.24,1.81,3.44a5.47,5.47,0,0,0,.49,3.28,3,3,0,0,0,1.78,1.55,2.19,2.19,0,0,0,2-.5,6.82,6.82,0,0,0,1.83-2.58,60.86,60.86,0,0,0,2.29-8.48A4.06,4.06,0,0,1,1434.69,1406Zm-3.58-8.39,1,.45a.75.75,0,1,1-.58,1.39l-1-.44a.76.76,0,0,1,.59-1.4Zm-6.82-2.87,1,.44a.76.76,0,1,1-.59,1.39l-1-.44a.75.75,0,0,1-.4-1A.76.76,0,0,1,1424.29,1394.76Zm-4.87,9.44a2.89,2.89,0,1,1,3.8-1.54A2.9,2.9,0,0,1,1419.42,1404.2Zm7.2-4h0a1.3,1.3,0,0,1,1-2.4h0a1.3,1.3,0,1,1-1,2.39Zm2.17,7.93a2.89,2.89,0,1,1,3.79-1.54A2.9,2.9,0,0,1,1428.79,1408.15Z" transform="translate(-1396.31 -1374.28)"/><circle class="cls-7" cx="40.83" cy="25.94" r="1.18"/><circle class="cls-7" cx="39.1" cy="30.05" r="1.18"/><circle class="cls-7" cx="37.91" cy="27.13" r="1.18"/><circle class="cls-7" cx="42.02" cy="28.86" r="1.18"/><circle class="cls-7" cx="33.6" cy="31.21" r="1.8"/><circle class="cls-3" cx="33.6" cy="31.21" r="1.25"/><path class="cls-1" d="M1429.1,1405.44a1,1,0,0,1,1.27-.52,1,1,0,0,1,.51.5,1,1,0,0,0-.59-.83,1,1,0,0,0-1.28.51,1.05,1.05,0,0,0,0,.78A1,1,0,0,1,1429.1,1405.44Z" transform="translate(-1396.31 -1374.28)"/><path class="cls-7" d="M1422.5,1401.53l-.56-.24a.42.42,0,0,1-.22-.56l.23-.56a.43.43,0,0,0-.23-.56l-.61-.26a.44.44,0,0,0-.57.23l-.23.56a.43.43,0,0,1-.56.23l-.56-.24a.44.44,0,0,0-.57.23l-.26.62a.43.43,0,0,0,.23.56l.56.23a.44.44,0,0,1,.23.57l-.23.56a.43.43,0,0,0,.22.56l.62.26a.43.43,0,0,0,.56-.23l.24-.56a.43.43,0,0,1,.56-.23l.56.24a.43.43,0,0,0,.56-.23l.26-.62A.43.43,0,0,0,1422.5,1401.53Z" transform="translate(-1396.31 -1374.28)"/><path class="cls-8" d="M1423.82,1395.88l1,.44a.46.46,0,0,0,.6-.25.44.44,0,0,0-.24-.59l-1-.45a.47.47,0,0,0-.6.25A.46.46,0,0,0,1423.82,1395.88Z" transform="translate(-1396.31 -1374.28)"/><path class="cls-8" d="M1414.89,1393.37l0,.07v0l0,.08h0l0,.09h0l0,.08h0a3.79,3.79,0,1,0,1.08-1.76h0l0,0a4.1,4.1,0,0,0-.67.88h0l0,.06v0l0,0v0l0,0,0,0v0l0,.08,0,.08Zm4.44-.83a2.38,2.38,0,1,1-3.12,1.27A2.39,2.39,0,0,1,1419.33,1392.54Z" transform="translate(-1396.31 -1374.28)"/><path class="cls-8" d="M1430.64,1398.75l1,.44a.46.46,0,1,0,.36-.84l-1-.44a.46.46,0,0,0-.6.24A.46.46,0,0,0,1430.64,1398.75Z" transform="translate(-1396.31 -1374.28)"/><path class="cls-1" d="M1423.63,1395.41a.46.46,0,0,1,.6-.24l1,.44a.39.39,0,0,1,.21.17.43.43,0,0,0-.26-.3l-1-.45a.47.47,0,0,0-.6.25.45.45,0,0,0,0,.42A.49.49,0,0,1,1423.63,1395.41Z" transform="translate(-1396.31 -1374.28)"/><path class="cls-1" d="M1430.45,1398.29a.46.46,0,0,1,.6-.25l1,.44a.46.46,0,0,1,.21.18.45.45,0,0,0-.26-.31l-1-.44a.46.46,0,0,0-.56.67A.48.48,0,0,1,1430.45,1398.29Z" transform="translate(-1396.31 -1374.28)"/><circle class="cls-7" cx="1418.4" cy="1394.74" r="2.08" transform="translate(-1790.26 840.54) rotate(-68.86)"/><circle class="cls-3" cx="22.09" cy="20.46" r="1.63"/><path class="cls-1" d="M1417.24,1394.64a1.38,1.38,0,0,1,1.8-.74,1.35,1.35,0,0,1,.72.71,1.38,1.38,0,0,0-2.64-.45,1.37,1.37,0,0,0,0,1.09A1.31,1.31,0,0,1,1417.24,1394.64Z" transform="translate(-1396.31 -1374.28)"/><path class="cls-3" d="M1439.15,1397.6l.1-.22a.11.11,0,0,0-.06-.14l-3.07-1.29a.28.28,0,0,0-.38.15l0,.06,0,0,3.44,1.45Z" transform="translate(-1396.31 -1374.28)"/><path class="cls-3" d="M1423.17,1390.87l0-.06a.29.29,0,0,0-.16-.38l-3.06-1.3a.11.11,0,0,0-.14.06l-.09.22,0,0,3.44,1.45A0,0,0,0,0,1423.17,1390.87Z" transform="translate(-1396.31 -1374.28)"/><path class="cls-3" d="M1427.52,1398.1h0a1,1,0,0,0-.78,1.84h0a1,1,0,0,0,1.31-.53A1,1,0,0,0,1427.52,1398.1Z" transform="translate(-1396.31 -1374.28)"/><path class="cls-7" d="M1423.7,1396.15l1,.44a.76.76,0,1,0,.59-1.39l-1-.44a.76.76,0,0,0-1,.4A.75.75,0,0,0,1423.7,1396.15Zm.47-1.12,1,.45a.44.44,0,0,1,.24.59.46.46,0,0,1-.6.25l-1-.44a.46.46,0,0,1-.25-.6A.47.47,0,0,1,1424.17,1395Z" transform="translate(-1396.31 -1374.28)"/><path class="cls-7" d="M1417.48,1396.93a2.38,2.38,0,1,0-1.27-3.12A2.39,2.39,0,0,0,1417.48,1396.93Zm1.73-4.11a2.08,2.08,0,1,1-2.72,1.11A2.08,2.08,0,0,1,1419.21,1392.82Z" transform="translate(-1396.31 -1374.28)"/><path class="cls-7" d="M1427.63,1397.83h0a1.3,1.3,0,0,0-1,2.4h0a1.3,1.3,0,1,0,1-2.39Zm-.89,2.11h0a1,1,0,0,1,.78-1.84h0a1,1,0,0,1,.53,1.31A1,1,0,0,1,1426.74,1399.94Z" transform="translate(-1396.31 -1374.28)"/><path class="cls-7" d="M1431,1402.82a2.89,2.89,0,1,0,1.54,3.79A2.9,2.9,0,0,0,1431,1402.82Zm-2.14,5a2.59,2.59,0,1,1,3.4-1.38A2.59,2.59,0,0,1,1428.9,1407.87Z" transform="translate(-1396.31 -1374.28)"/><path class="cls-7" d="M1430.52,1399l1,.44a.75.75,0,1,0,.58-1.39l-1-.45a.76.76,0,0,0-.59,1.4Zm.47-1.12,1,.44a.46.46,0,1,1-.36.84l-1-.44a.46.46,0,0,1-.25-.6A.46.46,0,0,1,1431,1397.91Z" transform="translate(-1396.31 -1374.28)"/><path class="cls-7" d="M1421.67,1398.87a2.89,2.89,0,1,0,1.55,3.79A2.9,2.9,0,0,0,1421.67,1398.87Zm-2.13,5.06a2.6,2.6,0,1,1,3.4-1.39A2.6,2.6,0,0,1,1419.54,1403.93Z" transform="translate(-1396.31 -1374.28)"/><path class="cls-1" d="M1437.1,1400.83H1437l-.08,0a.23.23,0,0,1-.12-.08s0-.08,0-.14l.1-.24,0-.19,0-.21,0-.21a1.08,1.08,0,0,1,0-.18l.09,0a.15.15,0,0,1,.11,0,.26.26,0,0,1,.1.07.39.39,0,0,1,0,.15l0,.36h0l.09-.09.07-.07.08-.08.1-.1h.08l.08,0a.18.18,0,0,1,.09.08.16.16,0,0,1,0,.12l0,0-.08.07-.16.13-.29.21Z" transform="translate(-1396.31 -1374.28)"/><path class="cls-1" d="M1438.1,1403.72l-.07,0-.09,0-.08-.05-.07-.06a.13.13,0,0,1,0-.17l.35-.85.05,0h.07a.68.68,0,0,1,.17,0,.73.73,0,0,1,.19.07.69.69,0,0,1,.32.22.29.29,0,0,1,0,.3.32.32,0,0,1-.11.12.41.41,0,0,1-.16,0,.31.31,0,0,1,.11.16.25.25,0,0,1,0,.19.32.32,0,0,1-.24.21A.76.76,0,0,1,1438.1,1403.72Zm.17-.74.14,0a.19.19,0,0,0,.12,0,.1.1,0,0,0,.07-.07.08.08,0,0,0,0-.09.2.2,0,0,0-.11-.08l-.06,0-.06,0Zm-.18.44.06,0,.07,0a.24.24,0,0,0,.14,0,.1.1,0,0,0,.08-.07.09.09,0,0,0,0-.1.24.24,0,0,0-.11-.08l-.15-.06Z" transform="translate(-1396.31 -1374.28)"/><path class="cls-1" d="M1433.9,1400.78l0,0,.06,0h.07l.07,0a.2.2,0,0,1,.09.06.33.33,0,0,1,0,.13l0,.27.34-.22h.1a.27.27,0,0,1,.11.1.14.14,0,0,1,0,.11.19.19,0,0,1-.07.08l-.11.07-.28.15.12.54a.21.21,0,0,1-.11.08.2.2,0,0,1-.15,0,.27.27,0,0,1-.08-.07.55.55,0,0,1,0-.12l0-.29-.38.25h0a.27.27,0,0,1-.14-.11.13.13,0,0,1,0-.12.12.12,0,0,1,.06-.08l.1-.07.3-.16Z" transform="translate(-1396.31 -1374.28)"/><path class="cls-1" d="M1435.41,1403.72h.1l.14,0,.15.09a.21.21,0,0,1,0,.12,2.29,2.29,0,0,1,0,.25l0,.29c0,.1,0,.2,0,.3s0,.18,0,.25l-.09,0-.11,0-.07,0,0,0a.43.43,0,0,0,0,0v-.07l0-.14-.33-.13a.86.86,0,0,0-.07.1l-.08.1h-.06l-.07,0a.31.31,0,0,1-.12-.09.14.14,0,0,1,0-.11l0,0,0,0,.09-.11.11-.13.13-.15.13-.14.11-.12Zm.11.32a1.58,1.58,0,0,1-.12.15l-.14.16.22.1,0-.21c0-.07,0-.14,0-.19Z" transform="translate(-1396.31 -1374.28)"/><path class="cls-10" d="M1412.41,1402a30.28,30.28,0,0,1,2.74-4.84,4,4,0,0,1-.81-2.31,61.3,61.3,0,0,0-4.48,7.56,6.87,6.87,0,0,0-.57,3.11,2.23,2.23,0,0,0,1,1.79,3,3,0,0,0,2.35.18,4.81,4.81,0,0,0,1.68-.9C1412.54,1406.45,1411,1405.41,1412.41,1402Z" transform="translate(-1396.31 -1374.28)"/><path class="cls-10" d="M1418.63,1389.69a3.31,3.31,0,0,0-1.54,1.19,4.09,4.09,0,0,1,2.88.1l.7-.8-1.39-.59A1.61,1.61,0,0,0,1418.63,1389.69Z" transform="translate(-1396.31 -1374.28)"/><path class="cls-10" d="M1435.24,1411.65a29.37,29.37,0,0,0,1.55-5.34,4.14,4.14,0,0,0,2.23-1,61.24,61.24,0,0,1-2.29,8.48,6.82,6.82,0,0,1-1.83,2.58,2.21,2.21,0,0,1-2,.5,3,3,0,0,1-1.77-1.55,4.83,4.83,0,0,1-.52-1.84C1432,1414.65,1433.81,1415,1435.24,1411.65Z" transform="translate(-1396.31 -1374.28)"/><path class="cls-10" d="M1439.74,1398.59a3.44,3.44,0,0,1,.21,1.93,4,4,0,0,0-2.08-2c0-.44.07-.8.08-1.06l1.4.59A1.6,1.6,0,0,1,1439.74,1398.59Z" transform="translate(-1396.31 -1374.28)"/><path class="cls-7" d="M1439.74,1404.41h0l.1-.17v0l0-.07h0l0-.09v0l0-.06v0l0-.08h0l0-.09,0,0,0,0,0,0v0l0-.06v0l0-.07h0a4.21,4.21,0,0,0,.17-1.11v-.16a4.08,4.08,0,0,0-.18-1.09c0-.11,0-.22,0-.32.33-2-.5-2.79-.71-2.94h0s0,0,0,0h0s0,0,0,0l.09-.22a.41.41,0,0,0-.21-.53l-3.07-1.29a.59.59,0,0,0-.78.31l0,.06a0,0,0,0,1,0,0l-5.84-2.26-.38-.16-5.7-2.61a0,0,0,0,1,0,0l0-.06a.59.59,0,0,0-.31-.78l-3.07-1.29a.41.41,0,0,0-.53.21l-.09.23,0,0h0c-.06,0-1.31-.28-2.66,1.54l-.19.26a4.14,4.14,0,0,0-.9.63l0,0-.05,0,0,0,0,0a4.63,4.63,0,0,0-.68.9h0l0,.07v0l0,.06v0l0,0,0,0,0,0,0,.08,0,.09v0l0,.07h0a.36.36,0,0,0,0,.09v0l0,.08h0a1.8,1.8,0,0,0,0,.19h0a3.66,3.66,0,0,0-.1.56,65.41,65.41,0,0,0-4.78,8,7,7,0,0,0-.59,3.25,2.53,2.53,0,0,0,1.19,2,2.85,2.85,0,0,0,.3.16,3.46,3.46,0,0,0,2.28.06,5.77,5.77,0,0,0,2.85-2c.68-.86,1.84-1.2,3.46-1a18,18,0,0,1,5,1.61h0a18.05,18.05,0,0,1,4.61,2.42c1.27,1,1.85,2.08,1.7,3.17a5.84,5.84,0,0,0,.53,3.46,3.29,3.29,0,0,0,2,1.7,2.51,2.51,0,0,0,2.27-.55,7.07,7.07,0,0,0,1.91-2.7,66.06,66.06,0,0,0,2.42-9A4.73,4.73,0,0,0,1439.74,1404.41Zm.31-2.24h0v.06a3.75,3.75,0,0,1-.16,1.1h0l0,.06v.08l0,0v0l0,0v0a.2.2,0,0,0,0,.08h0l0,.08v0l0,.06v0l0,.08h0a.59.59,0,0,0,0,.08h0l0,.08h0a3.77,3.77,0,1,1,.51-2Zm-4.33-6,0-.06a.28.28,0,0,1,.38-.15l3.07,1.29a.11.11,0,0,1,.06.14l-.1.22v0l-3.44-1.45Zm-16-6.75.09-.22a.11.11,0,0,1,.14-.06l3.06,1.3a.29.29,0,0,1,.16.38l0,.06a0,0,0,0,1,0,0l-3.44-1.45Zm-4.78,3.78v0l0,0,0,0v0l0,0v0l0-.06h0a4.1,4.1,0,0,1,.67-.88l0,0h0a3.76,3.76,0,1,1-1.08,1.76h0l0-.08h0l0-.09h0l0-.08v0l0-.07v0l0-.08Zm21.76,20.57a6.82,6.82,0,0,1-1.83,2.58,2.19,2.19,0,0,1-2,.5,3,3,0,0,1-1.78-1.55,5.47,5.47,0,0,1-.49-3.28c.16-1.2-.45-2.36-1.81-3.44a30.75,30.75,0,0,0-9.71-4.1c-1.73-.22-3,.15-3.74,1.11a5.37,5.37,0,0,1-2.69,1.93,3,3,0,0,1-2.35-.18,2.23,2.23,0,0,1-1-1.79,6.87,6.87,0,0,1,.57-3.11,61.3,61.3,0,0,1,4.48-7.56,4.06,4.06,0,1,0,2.75-4,3.31,3.31,0,0,1,1.54-1.19,1.61,1.61,0,0,1,.65-.1l4.07,1.72,5.7,2.6.39.16,5.84,2.27h0l4,1.71a1.6,1.6,0,0,1,.39.53,3.39,3.39,0,0,1,.21,1.94,4.07,4.07,0,1,0-.93,4.75A60.86,60.86,0,0,1,1436.73,1413.76Z" transform="translate(-1396.31 -1374.28)"/><ellipse class="cls-1" cx="1427.28" cy="1398.54" rx="0.36" ry="0.62" transform="translate(-1812.29 795.89) rotate(-67.13)"/><path class="cls-10" d="M1426.68,1393.18a4.27,4.27,0,0,0,.87,4.61l.07,0h0a1.24,1.24,0,0,1,.63.56,4.93,4.93,0,0,0,.75.41,4.42,4.42,0,0,0,1.77.34l-.26-.11a.76.76,0,0,1,.59-1.4l1,.45a.74.74,0,0,1,.46.62,4.14,4.14,0,0,0,2.05-2.15,3,3,0,0,0,.14-.39l-5.36-2.09-.39-.16-2.24-1A2.55,2.55,0,0,0,1426.68,1393.18Z" transform="translate(-1396.31 -1374.28)"/><path class="cls-10" d="M1433.17,1407.14a3.2,3.2,0,0,1,1.08-1.33,4.08,4.08,0,0,1-1.72-5.12,3.78,3.78,0,0,1,.33-.63,3.51,3.51,0,0,0-1.21,1.71,8.6,8.6,0,0,1-.4,1.15,2.89,2.89,0,1,1-4,1.44v0c-.64.48-.74,1.55-1.35,1.28-.76-.34-3.53-1.23-2.94-2.18a2.3,2.3,0,0,0,.37-1.1c0,.11-.07.21-.11.32a2.9,2.9,0,0,1-5.52-.59,12.09,12.09,0,0,1-.81,1.07,4.86,4.86,0,0,0-1,1.95,4.29,4.29,0,0,1,3.25-.62,30.75,30.75,0,0,1,9.71,4.1,4.41,4.41,0,0,1,1.81,2.67c0-.62-.15-1.41.36-1.74A4.87,4.87,0,0,0,1433.17,1407.14Z" transform="translate(-1396.31 -1374.28)"/><path class="cls-10" d="M1426.6,1400.71a1.45,1.45,0,0,0,1.73-2.19,1.3,1.3,0,0,1-1.71,1.7h0a1.31,1.31,0,0,1-.77-1.43v0A1.43,1.43,0,0,0,1426.6,1400.71Z" transform="translate(-1396.31 -1374.28)"/><path class="cls-4" d="M1417,1408a8.89,8.89,0,0,0,.42-.88c0-.14.11-.29.16-.44v-.32s0-.07,0-.11a.18.18,0,0,1,0-.1,7.17,7.17,0,0,0-1-3.92,4.07,4.07,0,0,0-.85-1l-.15.26a10.82,10.82,0,0,1-1.32,1.79.15.15,0,0,1-.22-.2,11.53,11.53,0,0,0,1.29-1.75,6.4,6.4,0,0,0,1-3.77,3.7,3.7,0,0,0-.93-2.06l-1,1.65a1.31,1.31,0,0,1-1.59.51l-.06,0c-.91,1.49-1.7,2.93-1.45,3.71a25.1,25.1,0,0,1,.94,5.89,3.21,3.21,0,0,0,1.3,2.17,10.68,10.68,0,0,0,1.8,1.3C1415.78,1409.7,1416.42,1408.86,1417,1408Z" transform="translate(-1396.31 -1374.28)"/><path class="cls-6" d="M1415.51,1395.44a9.42,9.42,0,0,1-.75,4c-.89,2.11-2,2.56-1.83,3.92s.24,1.1,1.37-.42,2-.24,2.17,1.45a4.85,4.85,0,0,1-.58,3.37c-.46.74.66.88,1.31-.31s.69-1.28.54-2.12a8.73,8.73,0,0,0-1.15-3.32,3.47,3.47,0,0,0-1-1s.48-1,.52-1.12a6.78,6.78,0,0,0,.35-1.73A3,3,0,0,0,1415.51,1395.44Z" transform="translate(-1396.31 -1374.28)"/><path class="cls-11" d="M1414.76,1394.67s.55.25.52.55a8.52,8.52,0,0,1-1.13,1.94.91.91,0,0,1-.77.33,2.57,2.57,0,0,1-.82-.17s1.59-2.41,1.65-2.5.15-.26.22-.28S1414.76,1394.67,1414.76,1394.67Z" transform="translate(-1396.31 -1374.28)"/><path class="cls-7" d="M1416.39,1411.22a11.8,11.8,0,0,1-2.89-1.87,3.21,3.21,0,0,1-1.3-2.17,25.1,25.1,0,0,0-.94-5.89c-.25-.78.54-2.22,1.45-3.71l.06,0a1.31,1.31,0,0,0,1.59-.51l1-1.65a3.7,3.7,0,0,1,.93,2.06,6.4,6.4,0,0,1-1,3.77A11.53,11.53,0,0,1,1414,1403a.15.15,0,0,0,.22.2,10.82,10.82,0,0,0,1.32-1.79l.15-.26a4.07,4.07,0,0,1,.85,1,7.17,7.17,0,0,1,1,3.92.15.15,0,0,0,.1.14h0a.15.15,0,0,0,.15-.15,7.6,7.6,0,0,0-1-4.1,4.43,4.43,0,0,0-1-1.1,7.63,7.63,0,0,0,.55-1.31,5,5,0,0,0,.24-2.12,4,4,0,0,0-1.14-2.37v0c-.15-.15-.32-.3-.5-.45l-.29-.22-.19-.13a.17.17,0,0,0-.12,0,.16.16,0,0,0-.1.08c-.36.72-.87,1.54-1.36,2.33-1.16,1.88-2.26,3.66-1.93,4.7a24.85,24.85,0,0,1,.92,5.79,3.49,3.49,0,0,0,1.4,2.4,11.7,11.7,0,0,0,3,1.92l.08,0,.17-.25Zm-3.22-14.39c.46-.74.93-1.5,1.29-2.19a4.63,4.63,0,0,1,.71.59l-1.07,1.71a1,1,0,0,1-.62.44.91.91,0,0,1-.61-.06Z" transform="translate(-1396.31 -1374.28)"/><path class="cls-11" d="M1434.06,1395.13a1.42,1.42,0,0,0-.45-.42,1,1,0,0,0-1,.06,4.64,4.64,0,0,0-.47,1.52,1.27,1.27,0,0,0,1,.44,7.84,7.84,0,0,0,.93-1.44h0A.18.18,0,0,0,1434.06,1395.13Z" transform="translate(-1396.31 -1374.28)"/><path class="cls-4" d="M1430,1391.4l-.41-.2a2.61,2.61,0,0,0-1.94-.17.87.87,0,0,0-.52.65c-.23,1-.35,3.37.41,4.48a1.22,1.22,0,0,0,.85.57,2.46,2.46,0,0,0,1.68-.21.87.87,0,0,0,.38-.38h0a5.58,5.58,0,0,0,.67-3.21A2.08,2.08,0,0,0,1430,1391.4Zm.2,4.84,0,0a2,2,0,0,1-2.05.11l-.13,0,0,0,0-.06a6.42,6.42,0,0,1-.26-2.52.93.93,0,0,1,.39-.58,1.8,1.8,0,0,1,1.37-.42,2.21,2.21,0,0,1,1,.37.62.62,0,0,1,.25.54,11.88,11.88,0,0,1-.48,2.59Z" transform="translate(-1396.31 -1374.28)"/><path class="cls-11" d="M1430.24,1393.32a2,2,0,0,0-.87-.31,1.5,1.5,0,0,0-1.13.35c-.22.17-.29.32-.29.37a6.33,6.33,0,0,0,.22,2.34,1.9,1.9,0,0,0,1.75,0,12,12,0,0,0,.45-2.49A.31.31,0,0,0,1430.24,1393.32Z" transform="translate(-1396.31 -1374.28)"/><path class="cls-4" d="M1434.13,1393.3a3.26,3.26,0,0,0-.87-.57,1.4,1.4,0,0,0-.82-.13.62.62,0,0,0-.49.38,5.48,5.48,0,0,0-.49,3.46,1,1,0,0,0,.52.57c1.22.48,1.63,0,1.64-.07h0a4.32,4.32,0,0,0,1.08-2.3A1.56,1.56,0,0,0,1434.13,1393.3Zm.2,2.13h0a8.12,8.12,0,0,1-1,1.53l0,0h0a1.13,1.13,0,0,1-.8-.08,1.88,1.88,0,0,1-.66-.48l0,0v-.06a4.45,4.45,0,0,1,.5-1.69c.08-.18.36-.27.44-.3a1.29,1.29,0,0,1,1,.11,1.68,1.68,0,0,1,.56.51A.47.47,0,0,1,1434.33,1395.43Z" transform="translate(-1396.31 -1374.28)"/><path class="cls-7" d="M1434.33,1393.07a2.63,2.63,0,0,0-1.95-.77,1,1,0,0,0-.7.55,4.54,4.54,0,0,0-.22.53,3,3,0,0,0,0-.52,2.4,2.4,0,0,0-1.28-1.72,3.27,3.27,0,0,0-2.62-.39,1.23,1.23,0,0,0-.7.86,9.21,9.21,0,0,0-.17,2.24,5.08,5.08,0,0,0,.63,2.48,1.66,1.66,0,0,0,.7.6,1.89,1.89,0,0,0,.36.1c1.89.27,2.34-.69,2.38-.77.12-.26.23-.52.32-.76a2.73,2.73,0,0,0,.15,1,1.2,1.2,0,0,0,.67.72h0c1.41.56,2-.1,2-.16a4.64,4.64,0,0,0,1.15-2.48A1.91,1.91,0,0,0,1434.33,1393.07Zm-3.89,3.06h0a.87.87,0,0,1-.38.38,2.46,2.46,0,0,1-1.68.21,1.22,1.22,0,0,1-.85-.57c-.76-1.11-.64-3.51-.41-4.48a.87.87,0,0,1,.52-.65,2.61,2.61,0,0,1,1.94.17l.41.2a2.08,2.08,0,0,1,1.13,1.52A5.58,5.58,0,0,1,1430.44,1396.13Zm3.19.8h0s-.42.55-1.64.07a1,1,0,0,1-.52-.57,5.48,5.48,0,0,1,.49-3.46.62.62,0,0,1,.49-.38,1.4,1.4,0,0,1,.82.13,3.26,3.26,0,0,1,.87.57,1.56,1.56,0,0,1,.58,1.33A4.32,4.32,0,0,1,1433.63,1396.93Z" transform="translate(-1396.31 -1374.28)"/><path class="cls-7" d="M1430.42,1393.08a2.21,2.21,0,0,0-1-.37,1.8,1.8,0,0,0-1.37.42.93.93,0,0,0-.39.58,6.42,6.42,0,0,0,.26,2.52l0,.06,0,0,.13,0a2,2,0,0,0,2.05-.11l0,0v0a11.88,11.88,0,0,0,.48-2.59A.62.62,0,0,0,1430.42,1393.08Zm-2.25,3a6.33,6.33,0,0,1-.22-2.34s.07-.2.29-.37a1.5,1.5,0,0,1,1.13-.35,2,2,0,0,1,.87.31.31.31,0,0,1,.13.27,12,12,0,0,1-.45,2.49A1.9,1.9,0,0,1,1428.17,1396.07Z" transform="translate(-1396.31 -1374.28)"/><path class="cls-7" d="M1434.32,1395a1.68,1.68,0,0,0-.56-.51,1.29,1.29,0,0,0-1-.11c-.08,0-.36.12-.44.3a4.45,4.45,0,0,0-.5,1.69v.06l0,0a1.88,1.88,0,0,0,.66.48,1.13,1.13,0,0,0,.8.08h0l0,0a8.12,8.12,0,0,0,1-1.53h0A.47.47,0,0,0,1434.32,1395Zm-.25.32h0a7.84,7.84,0,0,1-.93,1.44,1.27,1.27,0,0,1-1-.44,4.64,4.64,0,0,1,.47-1.52,1,1,0,0,1,1-.06,1.42,1.42,0,0,1,.45.42A.18.18,0,0,1,1434.07,1395.29Z" transform="translate(-1396.31 -1374.28)"/><path class="cls-6" d="M1430.88,1392.27a2.08,2.08,0,0,0-1.37-.75,1.52,1.52,0,0,0-1.87,1.31c0,.52.55-.32,1.13-.08a1.68,1.68,0,0,1,.64,0,2.21,2.21,0,0,1,1,.37.62.62,0,0,1,.25.54,11.88,11.88,0,0,1-.48,2.59v0l0,0a2,2,0,0,1-2.05.11l-.13,0,0,0,0-.06a2.78,2.78,0,0,1-.09-.27,1.42,1.42,0,0,1-.29-.6c-.19-.6-.37-.09-.19.49a3.14,3.14,0,0,0,.18.31,1.22,1.22,0,0,0,.85.57,2.46,2.46,0,0,0,1.68-.21.87.87,0,0,0,.38-.38h0a5.58,5.58,0,0,0,.67-3.21A1.93,1.93,0,0,0,1430.88,1392.27Z" transform="translate(-1396.31 -1374.28)"/><path class="cls-6" d="M1434.13,1393.3a2.6,2.6,0,0,0-.43-.33c-.13,0-.23.07-.17.38.14.71,0,.61.2.81s-.12.06-.48-.06a1,1,0,0,0-1,.58,11.79,11.79,0,0,0-.48,1.34c0,.21-.18.35-.3.3a.56.56,0,0,0,0,.12,1,1,0,0,0,.52.57c1.22.48,1.63,0,1.64-.07h0a4.32,4.32,0,0,0,1.08-2.3A1.56,1.56,0,0,0,1434.13,1393.3Zm.2,2.13h0a8.12,8.12,0,0,1-1,1.53l0,0h0a1.13,1.13,0,0,1-.8-.08,1.88,1.88,0,0,1-.66-.48l0,0v-.06a4.45,4.45,0,0,1,.5-1.69c.08-.18.36-.27.44-.3a1.29,1.29,0,0,1,1,.11,1.68,1.68,0,0,1,.56.51A.47.47,0,0,1,1434.33,1395.43Z" transform="translate(-1396.31 -1374.28)"/><path class="cls-5" d="M1415.65,1410a6.39,6.39,0,0,1-1.44-.59c-1.17-.67.37-1.57.8-3.06s-.77-1.84-1.26-1.38-.71,1.31-1,.56a10.64,10.64,0,0,1-.5-2.26c-.14-.92-.59-2.44-.37-3s.81-1.94,1.15-2a1.71,1.71,0,0,0,1.32-.76,2.34,2.34,0,0,0,.58-1.36l-.58.93a1.31,1.31,0,0,1-1.59.51l-.06,0c-.91,1.49-1.7,2.93-1.45,3.71a25.1,25.1,0,0,1,.94,5.89,3.21,3.21,0,0,0,1.3,2.17,10.68,10.68,0,0,0,1.8,1.3C1415.41,1410.44,1415.52,1410.23,1415.65,1410Z" transform="translate(-1396.31 -1374.28)"/></svg>